# xmcd CD database file
#
# Track frame offsets:
#	150
#	12589
#	26064
#	39809
#	53115
#	67909
#	79280
#	100744
#	111080
#	124578
#	140793
#	154143
#	168310
#	184027
#
# Disc length: 2633 seconds
#
# Revision: 0
# Processed by: cddbd v1.5.1PL0 Copyright (c) Steve Scherf et al.
# Submitted via: CDex 1.51
#
DISCID=b40a470e
DTITLE=ADAMO - SANS TOI MSMIE
DYEAR=1900
DGENRE=Vocal
TTITLE0=SANS TOI MAMIE
TTITLE1=TOMBE LA NEIGE
TTITLE2=MAUVAIS GARCON
TTITLE3=EN BLUE JEANS ET BLOUSON D'CUIR
TTITLE4=LA NUIT
TTITLE5=QUAND LES ROSES
TTITLE6=INCH'ALLAH
TTITLE7=DOLCE PAOLA
TTITLE8=UNE LAREME AUX NUAGES
TTITLE9=L'AMOUR TE RESSEMBLE
TTITLE10=MES MAINS SUR TES HANCHES
TTITLE11=J'AIME
TTITLE12=EN BADOULIERE
TTITLE13=LE NEON
EXTD=
EXTT0=
EXTT1=
EXTT2=
EXTT3=
EXTT4=
EXTT5=
EXTT6=
EXTT7=
EXTT8=
EXTT9=
EXTT10=
EXTT11=
EXTT12=
EXTT13=
PLAYORDER=
